<svg xmlns="http://www.w3.org/2000/svg" version="1.1" xmlns:xlink="http://www.w3.org/1999/xlink" xmlns:svgjs="http://svgjs.dev/svgjs" width="2880" height="1620" preserveAspectRatio="none" viewBox="0 0 2880 1620"><g mask="url(&quot;#SvgjsMask1135&quot;)" fill="none"><rect width="2880" height="1620" x="0" y="0" fill="rgba(20, 88, 165, 1)"></rect><path d="M0,691.259C128.037,684.061,236.433,604.826,340.899,530.448C441.045,459.146,522.258,371.712,591.495,270.127C673.028,150.501,807.795,29.858,778.747,-111.967C749.429,-255.111,540.557,-275.864,455.356,-394.568C356.298,-532.579,402.22,-775.206,249.419,-849.445C102.944,-920.61,-64.288,-789.147,-210.904,-718.272C-337.56,-657.046,-436.508,-563.214,-539.94,-467.861C-657.006,-359.939,-837.967,-281.285,-856.458,-123.14C-875,35.441,-720.333,156.496,-628.187,286.883C-552.448,394.054,-476.802,499.184,-366.456,570.216C-256.051,641.286,-131.095,698.629,0,691.259" fill="#104581"></path><path d="M2880 2532.389C3053.0389999999998 2522.9139999999998 3205.25 2442.881 3363.637 2372.554 3551.309 2289.224 3800.962 2266.181 3892.975 2082.61 3984.7619999999997 1899.49 3885.268 1676.199 3807.7039999999997 1486.616 3742.391 1326.976 3592.285 1230.54 3488.121 1093.06 3374.303 942.838 3337.34 722.789 3167.334 641.43 2993.2 558.095 2772.688 580.903 2600.556 668.3 2437.577 751.05 2374.758 942.41 2274.077 1094.9650000000001 2187.297 1226.4569999999999 2091.77 1348.613 2051.118 1500.825 2006.548 1667.706 1975.4070000000002 1844.282 2030.202 2008.09 2087.855 2180.443 2206.411 2332.025 2361.082 2427.452 2514.376 2522.0299999999997 2700.147 2542.237 2880 2532.389" fill="#186bc9"></path></g><defs><mask id="SvgjsMask1135"><rect width="2880" height="1620" fill="#ffffff"></rect></mask></defs></svg>